<?xml version="1.0" encoding="UTF-8"?>
<!DOCTYPE svg PUBLIC "-//W3C//DTD SVG 1.1//EN" "http://www.w3.org/Graphics/SVG/1.1/DTD/svg11.dtd">
<svg xmlns="http://www.w3.org/2000/svg" version="1.1" width="160px" height="160px" style="shape-rendering:geometricPrecision; text-rendering:geometricPrecision; image-rendering:optimizeQuality; fill-rule:evenodd; clip-rule:evenodd" xmlns:xlink="http://www.w3.org/1999/xlink">
<g><path style="opacity:0.999" fill="#131313" d="M 12.5,-0.5 C 13.8333,-0.5 15.1667,-0.5 16.5,-0.5C 17.3185,15.7595 17.8185,32.0928 18,48.5C 21.2708,67.5972 32.1041,79.9305 50.5,85.5C 56.0896,87.5497 61.7563,87.883 67.5,86.5C 80.8375,86.3334 94.1708,86.5001 107.5,87C 118.442,90.2747 125.275,97.4414 128,108.5C 128.818,125.574 128.651,142.574 127.5,159.5C 126.167,159.5 124.833,159.5 123.5,159.5C 122.958,141.855 122.125,124.188 121,106.5C 118.208,99.2084 113.042,94.5418 105.5,92.5C 91.0058,91.3391 76.3391,91.1724 61.5,92C 62.2438,93.0386 63.2438,93.5386 64.5,93.5C 66.1789,93.8923 67.8455,94.3923 69.5,95C 81.1667,95.3333 92.8333,95.6667 104.5,96C 110.911,97.5825 115.244,101.416 117.5,107.5C 118.024,116.99 118.691,126.324 119.5,135.5C 119.825,143.352 119.492,151.018 118.5,158.5C 116.856,158.714 115.356,158.38 114,157.5C 113.829,149.656 113.329,141.989 112.5,134.5C 112.666,126.16 112.5,117.827 112,109.5C 111.333,108.167 110.667,106.833 110,105.5C 109.82,123.573 109.32,141.573 108.5,159.5C 107.167,159.5 105.833,159.5 104.5,159.5C 104.5,159.167 104.5,158.833 104.5,158.5C 104.667,139.497 104.5,120.497 104,101.5C 90.884,100.767 77.7174,100.1 64.5,99.5C 60.0518,97.7728 56.0518,95.2728 52.5,92C 32.3085,87.9715 19.3085,76.1382 13.5,56.5C 12.5956,37.8515 12.2623,19.1848 12.5,0.5C 12.5,0.166667 12.5,-0.166667 12.5,-0.5 Z"/></g>
<g><path style="opacity:0.999" fill="#1c1b1c" d="M 27.5,51.5 C 31.4281,64.5922 40.0947,72.7589 53.5,76C 72.5516,76.0508 91.5516,76.7175 110.5,78C 122.914,81.5828 131.247,89.4162 135.5,101.5C 135.41,104.152 136.076,106.485 137.5,108.5C 138.833,125.5 138.833,142.5 137.5,159.5C 135.833,159.5 134.167,159.5 132.5,159.5C 132.898,141.796 132.398,124.129 131,106.5C 126.879,93.3798 118.045,85.5465 104.5,83C 85.4484,82.9492 66.4484,82.2825 47.5,81C 32.356,74.8529 23.5226,63.6862 21,47.5C 20.1721,31.9945 20.3388,16.6611 21.5,1.5C 23.0098,0.272069 24.5098,0.272069 26,1.5C 26.1685,18.3384 26.6685,35.005 27.5,51.5 Z"/></g>
<g><path style="opacity:0.998" fill="#1b1b1b" d="M 31.5,-0.5 C 33.1667,-0.5 34.8333,-0.5 36.5,-0.5C 36.3334,15.5035 36.5001,31.5035 37,47.5C 38.7685,56.5494 43.9352,62.716 52.5,66C 66.8295,66.4999 81.1628,66.6666 95.5,66.5C 98.105,67.5037 98.105,67.1704 95.5,65.5C 93.8211,65.1077 92.1545,64.6077 90.5,64C 78.1667,63.6667 65.8333,63.3333 53.5,63C 47.2166,60.8861 43.2166,56.7194 41.5,50.5C 41.5,33.8333 41.5,17.1667 41.5,0.5C 42.8333,0.5 44.1667,0.5 45.5,0.5C 46.1936,17.3719 46.8603,34.3719 47.5,51.5C 47.5106,53.6859 48.5106,54.5192 50.5,54C 49.944,53.6174 49.6107,53.1174 49.5,52.5C 49.181,34.7566 49.5143,17.0899 50.5,-0.5C 52.1667,-0.5 53.8333,-0.5 55.5,-0.5C 56.8223,18.8631 56.8223,38.1964 55.5,57.5C 66.9019,58.1764 78.4019,58.843 90,59.5C 90.3826,58.944 90.8826,58.6107 91.5,58.5C 97.1977,59.5205 101.864,62.3539 105.5,67C 117.954,69.2231 128.287,75.0564 136.5,84.5C 136.427,86.0269 137.094,87.0269 138.5,87.5C 142.4,91.3005 144.734,95.9672 145.5,101.5C 146.435,120.477 146.769,139.477 146.5,158.5C 144.784,158.371 143.117,158.038 141.5,157.5C 141.667,141.163 141.5,124.83 141,108.5C 136.949,90.1157 125.783,78.6157 107.5,74C 90.1667,73.6667 72.8333,73.3333 55.5,73C 42.4107,70.2431 34.244,62.4098 31,49.5C 30.1824,32.7594 30.3491,16.0927 31.5,-0.5 Z"/></g>
<g><path style="opacity:0.997" fill="#0e0e0e" d="M 108.5,0.5 C 109.661,15.6611 109.828,30.9945 109,46.5C 107.384,47.8009 105.884,47.8009 104.5,46.5C 104.5,31.1667 104.5,15.8333 104.5,0.5C 105.833,0.5 107.167,0.5 108.5,0.5 Z"/></g>
<g><path style="opacity:1" fill="#141414" d="M 114.5,-0.5 C 115.833,-0.5 117.167,-0.5 118.5,-0.5C 119.65,15.0924 119.817,30.7591 119,46.5C 117.989,47.3366 116.822,47.67 115.5,47.5C 115.217,46.7109 114.717,46.0442 114,45.5C 113.198,30.1222 113.365,14.7889 114.5,-0.5 Z"/></g>
<g><path style="opacity:1" fill="#121213" d="M 123.5,-0.5 C 125.167,-0.5 126.833,-0.5 128.5,-0.5C 128.667,15.1702 128.5,30.8369 128,46.5C 126.333,47.8333 124.667,47.8333 123,46.5C 122.183,30.7591 122.35,15.0924 123.5,-0.5 Z"/></g>
<g><path style="opacity:0.997" fill="#0b0b0b" d="M 132.5,0.5 C 134.144,0.286495 135.644,0.619828 137,1.5C 137.333,17.1667 137.667,32.8333 138,48.5C 138.278,49.4158 138.778,50.0825 139.5,50.5C 140.09,51.766 140.59,53.0993 141,54.5C 141.5,36.8365 141.667,19.1698 141.5,1.5C 143.117,0.962003 144.784,0.628669 146.5,0.5C 146.5,23.5 146.5,46.5 146.5,69.5C 145.5,69.5 144.5,69.5 143.5,69.5C 138.478,64.1316 134.978,57.7983 133,50.5C 132.5,33.8367 132.333,17.17 132.5,0.5 Z"/></g>
<g><path style="opacity:0.791" fill="#1f1f20" d="M 142.5,-0.5 C 144.167,-0.5 145.833,-0.5 147.5,-0.5C 147.5,23.1667 147.5,46.8333 147.5,70.5C 145.901,70.7678 144.568,70.4345 143.5,69.5C 144.5,69.5 145.5,69.5 146.5,69.5C 146.5,46.5 146.5,23.5 146.5,0.5C 144.784,0.628669 143.117,0.962003 141.5,1.5C 141.833,0.833333 142.167,0.166667 142.5,-0.5 Z"/></g>
<g><path style="opacity:0.737" fill="#39393a" d="M 40.5,-0.5 C 42.1667,-0.5 43.8333,-0.5 45.5,-0.5C 45.5,-0.166667 45.5,0.166667 45.5,0.5C 44.1667,0.5 42.8333,0.5 41.5,0.5C 41.5,17.1667 41.5,33.8333 41.5,50.5C 40.5034,33.6749 40.1701,16.6749 40.5,-0.5 Z"/></g>
<g><path style="opacity:0.221" fill="#424243" d="M 132.5,0.5 C 132.5,0.166667 132.5,-0.166667 132.5,-0.5C 134.167,-0.5 135.833,-0.5 137.5,-0.5C 138.195,16.4573 138.862,33.4573 139.5,50.5C 138.778,50.0825 138.278,49.4158 138,48.5C 137.667,32.8333 137.333,17.1667 137,1.5C 135.644,0.619828 134.144,0.286495 132.5,0.5 Z"/></g>
<g><path style="opacity:0.551" fill="#303031" d="M 103.5,-0.5 C 105.167,-0.5 106.833,-0.5 108.5,-0.5C 108.5,-0.166667 108.5,0.166667 108.5,0.5C 107.167,0.5 105.833,0.5 104.5,0.5C 104.5,15.8333 104.5,31.1667 104.5,46.5C 103.504,31.0089 103.17,15.3422 103.5,-0.5 Z"/></g>
<g><path style="opacity:0.075" fill="#28282a" d="M 113.5,-0.5 C 113.833,-0.5 114.167,-0.5 114.5,-0.5C 113.365,14.7889 113.198,30.1222 114,45.5C 114.717,46.0442 115.217,46.7109 115.5,47.5C 114.504,47.5858 113.671,47.2524 113,46.5C 112.183,30.7591 112.35,15.0924 113.5,-0.5 Z"/></g>
<g><path style="opacity:0.46" fill="#2b2b2c" d="M 12.5,0.5 C 12.2623,19.1848 12.5956,37.8515 13.5,56.5C 12.6981,55.0484 12.1981,53.3817 12,51.5C 11.1716,34.3283 11.3383,17.3283 12.5,0.5 Z"/></g>
<g><path style="opacity:0.122" fill="#4e4d4f" d="M 21.5,-0.5 C 23.1667,-0.5 24.8333,-0.5 26.5,-0.5C 27.4854,16.7564 27.8187,34.0898 27.5,51.5C 26.6685,35.005 26.1685,18.3384 26,1.5C 24.5098,0.272069 23.0098,0.272069 21.5,1.5C 21.5,0.833333 21.5,0.166667 21.5,-0.5 Z"/></g>
<g><path style="opacity:0.588" fill="#6b6b6b" d="M 47.5,51.5 C 48.1667,51.8333 48.8333,52.1667 49.5,52.5C 49.6107,53.1174 49.944,53.6174 50.5,54C 48.5106,54.5192 47.5106,53.6859 47.5,51.5 Z"/></g>
<g><path style="opacity:0.49" fill="#424143" d="M 55.5,57.5 C 67.6783,57.1716 79.6783,57.5049 91.5,58.5C 90.8826,58.6107 90.3826,58.944 90,59.5C 78.4019,58.843 66.9019,58.1764 55.5,57.5 Z"/></g>
<g><path style="opacity:0.075" fill="#b3b2b2" d="M 95.5,65.5 C 98.105,67.1704 98.105,67.5037 95.5,66.5C 95.5,66.1667 95.5,65.8333 95.5,65.5 Z"/></g>
<g><path style="opacity:0.786" fill="#393939" d="M 50.5,85.5 C 56.1613,85.9068 61.828,86.2401 67.5,86.5C 61.7563,87.883 56.0896,87.5497 50.5,85.5 Z"/></g>
<g><path style="opacity:0.471" fill="#626262" d="M 136.5,84.5 C 137.906,84.9731 138.573,85.9731 138.5,87.5C 137.094,87.0269 136.427,86.0269 136.5,84.5 Z"/></g>
<g><path style="opacity:0.999" fill="#111111" d="M 16.5,90.5 C 20.1745,94.5067 22.8412,99.1734 24.5,104.5C 24.4095,107.152 25.0762,109.485 26.5,111.5C 27.8333,127.5 27.8333,143.5 26.5,159.5C 24.8333,159.5 23.1667,159.5 21.5,159.5C 21.5,159.167 21.5,158.833 21.5,158.5C 21.6666,142.163 21.4999,125.83 21,109.5C 20.7679,108.263 20.2679,107.263 19.5,106.5C 18.7321,105.737 18.2321,104.737 18,103.5C 17.8204,122.24 17.3204,140.907 16.5,159.5C 15.1667,159.5 13.8333,159.5 12.5,159.5C 12.5,159.167 12.5,158.833 12.5,158.5C 12.5,135.5 12.5,112.5 12.5,89.5C 13.9587,89.4326 15.2921,89.7659 16.5,90.5 Z"/></g>
<g><path style="opacity:0.257" fill="#595a58" d="M 105.5,92.5 C 91.6565,92.171 77.9898,92.5043 64.5,93.5C 63.2438,93.5386 62.2438,93.0386 61.5,92C 76.3391,91.1724 91.0058,91.3391 105.5,92.5 Z"/></g>
<g><path style="opacity:0.576" fill="#505050" d="M 135.5,101.5 C 136.924,103.515 137.59,105.848 137.5,108.5C 136.076,106.485 135.41,104.152 135.5,101.5 Z"/></g>
<g><path style="opacity:0.482" fill="#636363" d="M 24.5,104.5 C 25.9238,106.515 26.5905,108.848 26.5,111.5C 25.0762,109.485 24.4095,107.152 24.5,104.5 Z"/></g>
<g><path style="opacity:0.204" fill="#858585" d="M 19.5,106.5 C 20.2679,107.263 20.7679,108.263 21,109.5C 21.4999,125.83 21.6666,142.163 21.5,158.5C 20.7783,141.314 20.1116,123.981 19.5,106.5 Z"/></g>
<g><path style="opacity:1" fill="#191919" d="M 31.5,112.5 C 32.8333,112.5 34.1667,112.5 35.5,112.5C 35.5,127.833 35.5,143.167 35.5,158.5C 35.5,158.833 35.5,159.167 35.5,159.5C 34.1667,159.5 32.8333,159.5 31.5,159.5C 30.1769,143.735 30.1769,128.069 31.5,112.5 Z"/></g>
<g><path style="opacity:1" fill="#171718" d="M 45.5,159.5 C 44.1667,159.5 42.8333,159.5 41.5,159.5C 40.1836,143.564 40.1836,127.564 41.5,111.5C 43.061,110.653 44.561,110.986 46,112.5C 46.8165,128.241 46.6499,143.908 45.5,159.5 Z"/></g>
<g><path style="opacity:0.998" fill="#272727" d="M 55.5,159.5 C 53.8333,159.5 52.1667,159.5 50.5,159.5C 49.3501,143.908 49.1835,128.241 50,112.5C 51.888,110.078 53.888,110.078 56,112.5C 56.8023,128.211 56.6357,143.878 55.5,159.5 Z"/></g>
<g><path style="opacity:0.784" fill="#262727" d="M 145.5,101.5 C 146.29,102.609 146.79,103.942 147,105.5C 147.5,123.497 147.667,141.497 147.5,159.5C 145.833,159.5 144.167,159.5 142.5,159.5C 142.167,158.833 141.833,158.167 141.5,157.5C 143.117,158.038 144.784,158.371 146.5,158.5C 146.769,139.477 146.435,120.477 145.5,101.5 Z"/></g>
<g><path style="opacity:0.657" fill="#323132" d="M 35.5,158.5 C 35.5,143.167 35.5,127.833 35.5,112.5C 34.1667,112.5 32.8333,112.5 31.5,112.5C 32.3697,110.401 33.703,110.068 35.5,111.5C 36.8265,127.328 36.8265,142.995 35.5,158.5 Z"/></g>
<g><path style="opacity:0.081" fill="#2e2e2e" d="M 117.5,107.5 C 118.29,108.609 118.79,109.942 119,111.5C 119.5,119.493 119.666,127.493 119.5,135.5C 118.691,126.324 118.024,116.99 117.5,107.5 Z"/></g>
<g><path style="opacity:0.472" fill="#232325" d="M 16.5,90.5 C 15.2921,89.7659 13.9587,89.4326 12.5,89.5C 12.5,112.5 12.5,135.5 12.5,158.5C 11.5025,135.339 11.1691,112.006 11.5,88.5C 13.7812,88.0773 15.4479,88.744 16.5,90.5 Z"/></g>
<g><path style="opacity:0.576" fill="#2b2a2b" d="M 64.5,99.5 C 77.7174,100.1 90.884,100.767 104,101.5C 104.5,120.497 104.667,139.497 104.5,158.5C 103.503,140.007 103.17,121.341 103.5,102.5C 91.5323,101.728 79.5323,101.228 67.5,101C 66.2625,100.768 65.2625,100.268 64.5,99.5 Z"/></g>
<g><path style="opacity:0.075" fill="#323234" d="M 112.5,134.5 C 113.329,141.989 113.829,149.656 114,157.5C 115.356,158.38 116.856,158.714 118.5,158.5C 118.5,158.833 118.5,159.167 118.5,159.5C 116.833,159.5 115.167,159.5 113.5,159.5C 112.531,151.252 112.198,142.918 112.5,134.5 Z"/></g>
</svg>
