<svg xmlns="http://www.w3.org/2000/svg" width="20" height="20" viewBox="0 0 24 24" aria-hidden="true"><path fill="currentColor" fill-rule="evenodd" d="M7.25,6.25 L7.25,5 C7.25,3.48121694 8.48121694,2.25 10,2.25 L14,2.25 C15.5187831,2.25 16.75,3.48121694 16.75,5 L16.75,6.25 L20,6.25 C21.5187831,6.25 22.75,7.48121694 22.75,9 L22.75,19 C22.75,20.5187831 21.5187831,21.75 20,21.75 L4,21.75 C2.48121694,21.75 1.25,20.5187831 1.25,19 L1.25,9 C1.25,7.48121694 2.48121694,6.25 4,6.25 L7.25,6.25 Z M8.75,6.25 L15.25,6.25 L15.25,5 C15.25,4.30964406 14.6903559,3.75 14,3.75 L10,3.75 C9.30964406,3.75 8.75,4.30964406 8.75,5 L8.75,6.25 Z M4,7.75 C3.30964406,7.75 2.75,8.30964406 2.75,9 L2.75,19 C2.75,19.6903559 3.30964406,20.25 4,20.25 L20,20.25 C20.6903559,20.25 21.25,19.6903559 21.25,19 L21.25,9 C21.25,8.30964406 20.6903559,7.75 20,7.75 L4,7.75 Z"></path></svg>